# xmcd CD database file
#
# Track frame offsets:
#	150
#	24658
#	41115
#	67665
#	81013
#	99103
#	120858
#	155763
#	179370
#	198910
#
# Disc length: 3048 seconds
#
# Revision: 0
# Processed by: cddbd v1.5.2PL0 Copyright (c) Steve Scherf et al.
# Submitted via: CDex 1.70beta1
#
DISCID=710be60a
DTITLE=Art Pepper - Art Pepper Meets The Rhythm Section and 1
DYEAR=1957
DGENRE=Jazz
TTITLE0=You'd Be So Nice To Come Home To
TTITLE1=Red Pepper Blues
TTITLE2=Imagination
TTITLE3=Waltz Me Blues
TTITLE4=Straight Life
TTITLE5=Jazz Me Blues
TTITLE6=Tin Tin Deo
TTITLE7=Star Eyes
TTITLE8=Birks Works
TTITLE9=The Man I Love
EXTD=YEAR: 1957
EXTT0=
EXTT1=
EXTT2=
EXTT3=
EXTT4=
EXTT5=
EXTT6=
EXTT7=
EXTT8=
EXTT9=
PLAYORDER=
